<?xml version="1.0" encoding="UTF-8"?>
<svg width="34px" height="33px" viewBox="0 0 34 33" version="1.1" xmlns="http://www.w3.org/2000/svg" xmlns:xlink="http://www.w3.org/1999/xlink">
    <!-- Generator: Sketch 50 (54983) - http://www.bohemiancoding.com/sketch -->
    <title>Icon_INfrastructure-Operations Copy 7</title>
    <desc>Created with Sketch.</desc>
    <defs>
        <polygon id="path-1" points="0.296980211 0.642937427 10.4078821 0.642937427 10.4078821 10.7354988 0.296980211 10.7354988"></polygon>
    </defs>
    <g id="Page-1" stroke="none" stroke-width="1" fill="none" fill-rule="evenodd">
        <g id="Home_032018-A-Copy-2" transform="translate(-104.000000, -5163.000000)">
            <g id="themes" transform="translate(79.000000, 4070.000000)">
                <g id="Icon_Infrastructure-Operations_48px" transform="translate(25.000000, 1086.000000)">
                    <g id="Icon_INfrastructure-Operations-Copy-7" transform="translate(0.666667, 6.666667)">
                        <path d="M5.05540716,4.02889386 C6.100224,4.02889386 6.94973979,4.8769348 6.94973979,5.91993772 C6.94973979,6.96294064 6.100224,7.81185585 5.05540716,7.81185585 C4.01059032,7.81185585 3.16107453,6.96294064 3.16107453,5.91993772 C3.16107453,4.8769348 4.01059032,4.02889386 5.05540716,4.02889386 M5.05540716,1.93851667 C2.85279663,1.93851667 1.06706189,3.72115117 1.06706189,5.91993772 C1.06706189,8.11959854 2.85279663,9.90223304 5.05540716,9.90223304 C7.25801768,9.90223304 9.04375242,8.11959854 9.04375242,5.91993772 C9.04375242,3.72115117 7.25801768,1.93851667 5.05540716,1.93851667" id="Fill-1" fill="#F0B005"></path>
                        <path d="M20.5695798,5.9202 C20.5695798,8.11898655 18.7838451,9.90162105 16.5812345,9.90162105 C14.3777482,9.90162105 12.5920135,8.11898655 12.5920135,5.9202 C12.5920135,3.72141345 14.3777482,1.93877895 16.5812345,1.93877895 C18.7838451,1.93877895 20.5695798,3.72141345 20.5695798,5.9202" id="Fill-3" fill="#4280E8"></path>
                        <path d="M20.5695798,17.2586822 C20.5695798,19.4574687 18.7838451,21.2401032 16.5812345,21.2401032 C14.3777482,21.2401032 12.5920135,19.4574687 12.5920135,17.2586822 C12.5920135,15.0598956 14.3777482,13.2772611 16.5812345,13.2772611 C18.7838451,13.2772611 20.5695798,15.0598956 20.5695798,17.2586822" id="Fill-5" fill="#DE4236"></path>
                        <path d="M28.1229137,15.367376 C29.1677305,15.367376 30.0172463,16.215417 30.0172463,17.2584199 C30.0172463,18.3014228 29.1677305,19.150338 28.1229137,19.150338 C27.0780968,19.150338 26.2285811,18.3014228 26.2285811,17.2584199 C26.2285811,16.215417 27.0780968,15.367376 28.1229137,15.367376 M28.1229137,13.2769988 C25.9203032,13.2769988 24.1345684,15.0596333 24.1345684,17.2584199 C24.1345684,19.4580807 25.9203032,21.2407152 28.1229137,21.2407152 C30.3255242,21.2407152 32.1112589,19.4580807 32.1112589,17.2584199 C32.1112589,15.0596333 30.3255242,13.2769988 28.1229137,13.2769988" id="Fill-7" fill="#F0B005"></path>
                        <path d="M9.04401516,28.5971643 C9.04401516,30.7959509 7.25828042,32.5785854 5.05566989,32.5785854 C2.85218358,32.5785854 1.06644884,30.7959509 1.06644884,28.5971643 C1.06644884,26.3983778 2.85218358,24.6157433 5.05566989,24.6157433 C7.25828042,24.6157433 9.04401516,26.3983778 9.04401516,28.5971643" id="Fill-9" fill="#4280E8"></path>
                        <path d="M16.5809718,26.7059456 C17.6257886,26.7059456 18.4753044,27.5539865 18.4753044,28.5969895 C18.4753044,29.6399924 17.6257886,30.4889076 16.5809718,30.4889076 C15.5361549,30.4889076 14.6866392,29.6399924 14.6866392,28.5969895 C14.6866392,27.5539865 15.5361549,26.7059456 16.5809718,26.7059456 M16.5809718,24.6155684 C14.3783613,24.6155684 12.5926265,26.3982029 12.5926265,28.5969895 C12.5926265,30.795776 14.3783613,32.5792848 16.5809718,32.5792848 C18.7835823,32.5792848 20.5693171,30.795776 20.5693171,28.5969895 C20.5693171,26.3982029 18.7835823,24.6155684 16.5809718,24.6155684" id="Fill-11" fill="#F0B005"></path>
                        <path d="M32.1116093,28.5971643 C32.1116093,30.7959509 30.3258745,32.5785854 28.123264,32.5785854 C25.9197777,32.5785854 24.1340429,30.7959509 24.1340429,28.5971643 C24.1340429,26.3983778 25.9197777,24.6157433 28.123264,24.6157433 C30.3258745,24.6157433 32.1116093,26.3983778 32.1116093,28.5971643" id="Fill-13" fill="#4280E8"></path>
                        <g id="Group-17" transform="translate(22.770526, 0.231332)">
                            <mask id="mask-2" fill="white">
                                <use xlink:href="#path-1"></use>
                            </mask>
                            <g id="Clip-16"></g>
                            <polygon id="Fill-15" fill="#339E54" mask="url(#mask-2)" points="6.46166232 4.5815193 6.46166232 0.642937427 4.24328758 0.642937427 4.24328758 4.5815193 0.297856 4.5815193 0.296980211 6.79604269 4.24328758 6.79604269 4.24328758 10.7354988 6.46166232 10.7346246 6.46166232 6.79604269 10.4079697 6.79604269 10.4079697 4.5815193"></polygon>
                        </g>
                        <polygon id="Fill-18" fill="#339E54" points="6.16468211 16.1514205 6.16468211 12.2119643 3.94630737 12.2119643 3.94630737 16.1514205 0 16.1514205 0 18.3659439 3.94630737 18.3659439 3.94630737 22.3054 6.16468211 22.3045257 6.16468211 18.3659439 10.1101137 18.3659439 10.1101137 16.1514205"></polygon>
                    </g>
                </g>
            </g>
        </g>
    </g>
</svg>