<?xml version="1.0" encoding="UTF-8"?>
<svg width="33px" height="32px" viewBox="0 0 33 32" version="1.1" xmlns="http://www.w3.org/2000/svg" xmlns:xlink="http://www.w3.org/1999/xlink">
    <!-- Generator: Sketch 50 (54983) - http://www.bohemiancoding.com/sketch -->
    <title>Icon_IoT Copy 7</title>
    <desc>Created with Sketch.</desc>
    <defs>
        <polygon id="path-1" points="0.56915105 0.204698413 7.40514081 0.204698413 7.40514081 7.04004916 0.56915105 7.04004916"></polygon>
        <polygon id="path-3" points="0.56915105 0.619633385 7.40514081 0.619633385 7.40514081 7.45498413 0.56915105 7.45498413"></polygon>
    </defs>
    <g id="Page-1" stroke="none" stroke-width="1" fill="none" fill-rule="evenodd">
        <g id="Home_032018-A-Copy-2" transform="translate(-976.000000, -4213.000000)">
            <g id="themes" transform="translate(79.000000, 4070.000000)">
                <g id="Icon_IoT_48px" transform="translate(896.000000, 134.000000)">
                    <g id="Icon_IoT-Copy-7" transform="translate(1.666667, 8.000000)">
                        <polygon id="Fill-1" fill="#4280E9" points="12.5977471 1.06502816 12.5977471 13.5365079 0.0644956477 13.5365079 0.0644956477 20.3399078 12.5977471 20.3399078 12.5977471 32.8113876 19.4341628 32.8113876 19.4341628 20.3399078 31.9652842 20.3399078 31.9652842 13.5365079 19.4341628 13.5365079 19.4341628 1.06502816"></polygon>
                        <g id="Group-12" transform="translate(0.065028, 0.860543)">
                            <path d="M6.83662878,3.62237378 C6.83662878,5.50960369 5.30618331,7.04004916 3.41895341,7.04004916 C1.53065847,7.04004916 0.000213005632,5.50960369 0.000213005632,3.62237378 C0.000213005632,1.73514388 1.53065847,0.204698413 3.41895341,0.204698413 C5.30618331,0.204698413 6.83662878,1.73514388 6.83662878,3.62237378" id="Fill-2" fill="#F0B105"></path>
                            <g id="Group-6" transform="translate(24.495648, 0.000000)">
                                <mask id="mask-2" fill="white">
                                    <use xlink:href="#path-1"></use>
                                </mask>
                                <g id="Clip-5"></g>
                                <path d="M7.40556682,3.62237378 C7.40556682,5.50960369 5.87512135,7.04004916 3.98789145,7.04004916 C2.09959652,7.04004916 0.56915105,5.50960369 0.56915105,3.62237378 C0.56915105,1.73514388 2.09959652,0.204698413 3.98789145,0.204698413 C5.87512135,0.204698413 7.40556682,1.73514388 7.40556682,3.62237378" id="Fill-4" fill="#DF4335" mask="url(#mask-2)"></path>
                            </g>
                            <path d="M6.83662878,28.5329565 C6.83662878,30.4201864 5.30618331,31.9506318 3.41895341,31.9506318 C1.53065847,31.9506318 0.000213005632,30.4201864 0.000213005632,28.5329565 C0.000213005632,26.6457266 1.53065847,25.1152811 3.41895341,25.1152811 C5.30618331,25.1152811 6.83662878,26.6457266 6.83662878,28.5329565" id="Fill-7" fill="#DF4335"></path>
                            <g id="Group-11" transform="translate(24.495648, 24.495648)">
                                <mask id="mask-4" fill="white">
                                    <use xlink:href="#path-3"></use>
                                </mask>
                                <g id="Clip-10"></g>
                                <path d="M7.40556682,4.03730876 C7.40556682,5.92453866 5.87512135,7.45498413 3.98789145,7.45498413 C2.09959652,7.45498413 0.56915105,5.92453866 0.56915105,4.03730876 C0.56915105,2.15007885 2.09959652,0.619633385 3.98789145,0.619633385 C5.87512135,0.619633385 7.40556682,2.15007885 7.40556682,4.03730876" id="Fill-9" fill="#F0B105" mask="url(#mask-4)"></path>
                            </g>
                        </g>
                    </g>
                </g>
            </g>
        </g>
    </g>
</svg>