<?xml version="1.0" encoding="UTF-8"?>
<svg width="32px" height="32px" viewBox="0 0 32 32" version="1.1" xmlns="http://www.w3.org/2000/svg" xmlns:xlink="http://www.w3.org/1999/xlink">
    <!-- Generator: Sketch 50 (54983) - http://www.bohemiancoding.com/sketch -->
    <title>Icon_Machine-Learning Copy 7</title>
    <desc>Created with Sketch.</desc>
    <defs></defs>
    <g id="Page-1" stroke="none" stroke-width="1" fill="none" fill-rule="evenodd">
        <g id="Home_032018-A-Copy-2" transform="translate(-973.000000, -5165.000000)">
            <g id="themes" transform="translate(79.000000, 4070.000000)">
                <g id="Icon_Data-Analytics_48px" transform="translate(894.000000, 1086.000000)">
                    <g id="Icon_Machine-Learning-Copy-7" transform="translate(0.000000, 9.333333)">
                        <polygon id="Fill-1" fill="#F0B005" points="0 13.84864 0 31.2587733 17.4112 31.2587733 17.4101333 26.06944 5.18933333 26.06944 5.18933333 13.84864"></polygon>
                        <polygon id="Fill-2" fill="#DE4236" points="13.848 -0.00032 13.8490667 5.19008 26.0688 5.19008 26.0688 17.41088 31.2581333 17.41088 31.2581333 -0.00032"></polygon>
                        <polygon id="Fill-3" fill="#339E54" points="0 -0.00032 0 9.10474667 5.18933333 9.10474667 5.18933333 5.19008 9.10506667 5.19008 9.10506667 -0.00032"></polygon>
                        <polygon id="Fill-4" fill="#339E54" points="26.0688 22.15456 26.0688 26.06816 22.1530667 26.06816 22.1530667 31.2596267 31.2581333 31.2596267 31.2581333 22.15456"></polygon>
                        <polygon id="Fill-5" fill="#4280E8" points="8.83413333 22.4250667 22.4245333 22.4250667 22.4245333 8.83466667 8.83413333 8.83466667"></polygon>
                    </g>
                </g>
            </g>
        </g>
    </g>
</svg>