<?xml version="1.0" encoding="UTF-8"?>
<svg width="30px" height="35px" viewBox="0 0 30 35" version="1.1" xmlns="http://www.w3.org/2000/svg" xmlns:xlink="http://www.w3.org/1999/xlink">
    <!-- Generator: Sketch 50 (54983) - http://www.bohemiancoding.com/sketch -->
    <title>Icon_Mobility-Devices Copy 7</title>
    <desc>Created with Sketch.</desc>
    <defs></defs>
    <g id="Page-1" stroke="none" stroke-width="1" fill="none" fill-rule="evenodd">
        <g id="Home_032018-A-Copy-2" transform="translate(-539.000000, -4687.000000)">
            <g id="themes" transform="translate(79.000000, 4070.000000)">
                <g id="Icon_Mobility-Devices_48px" transform="translate(460.000000, 609.000000)">
                    <g id="Icon_Mobility-Devices-Copy-7" transform="translate(0.333333, 8.000000)">
                        <polygon id="Fill-1" fill="#F0B005" points="9.81319444 11.88 18.9781944 11.88 18.9781944 9.22311111 9.81319444 9.22311111"></polygon>
                        <polygon id="Fill-2" fill="#DE4236" points="9.81319444 15.9733333 18.9781944 15.9733333 18.9781944 13.3164444 9.81319444 13.3164444"></polygon>
                        <polygon id="Fill-3" fill="#339E54" points="9.81319444 20.0666667 18.9781944 20.0666667 18.9781944 17.4097778 9.81319444 17.4097778"></polygon>
                        <path d="M14.3945208,4.78222222 C16.9430625,4.78222222 19.3381319,5.75911111 21.1400764,7.53333333 C24.8595208,11.1955556 24.8595208,17.1546667 21.1400764,20.8168889 C20.8629236,21.0897778 17.5479236,24.2764444 14.2356319,27.4586667 L7.47834028,20.6382222 C3.94667361,16.9786667 4.02160417,11.1048889 7.64896528,7.53333333 C9.45090972,5.75911111 11.8459792,4.78222222 14.3945208,4.78222222 M14.3945208,0 C10.7102847,0 7.02604861,1.384 4.21479861,4.152 C-1.32735417,9.60888889 -1.40228472,18.4044444 3.98097917,23.9564444 L14.1498681,34.2213333 C14.1498681,34.2213333 24.0379931,24.7271111 24.5742431,24.1982222 C30.1967431,18.6622222 30.1967431,9.688 24.5742431,4.152 C21.7629931,1.384 18.0787569,0 14.3945208,0" id="Fill-4" fill="#4280E8"></path>
                    </g>
                </g>
            </g>
        </g>
    </g>
</svg>